<?xml version="1.0" encoding="UTF-8"?>
<svg width="58px" height="60px" viewBox="0 0 58 60" version="1.1" xmlns="http://www.w3.org/2000/svg" xmlns:xlink="http://www.w3.org/1999/xlink">
    <!-- Generator: Sketch 52.4 (67378) - http://www.bohemiancoding.com/sketch -->
    <title>Group 3</title>
    <desc>Created with Sketch.</desc>
    <defs>
        <polygon id="path-1" points="0 0 57.1084337 0 57.1084337 60 0 60"></polygon>
        <linearGradient x1="100%" y1="50%" x2="0%" y2="50%" id="linearGradient-3">
            <stop stop-color="#A78963" offset="0%"></stop>
            <stop stop-color="#784729" offset="100%"></stop>
        </linearGradient>
    </defs>
    <g id="Page-1" stroke="none" stroke-width="1" fill="none" fill-rule="evenodd">
        <g id="Homepage-Main" transform="translate(-1463.000000, -1428.000000)">
            <g id="Group-44" transform="translate(1170.000000, 1170.000000)">
                <g id="Group-20" transform="translate(0.000000, 258.000000)">
                    <g id="Group-3" transform="translate(293.000000, 0.000000)">
                        <mask id="mask-2" fill="white">
                            <use xlink:href="#path-1"></use>
                        </mask>
                        <g id="Clip-2"></g>
                        <path d="M2.55537572,32.7935731 L2.55537572,27.7739371 L41.1855449,34.8892711 L54.6161056,37.3990891 L54.64128,42.1804492 L2.55537572,32.7935731 Z M2.55537572,39.0806671 L2.55537572,35.3159402 L54.6286928,44.665169 L54.64128,48.4549942 L2.55537572,39.0806671 Z M2.55537572,47.6518524 L2.55537572,41.6281324 L54.6286928,50.9773612 L54.64128,57.2393571 L2.55537572,47.6518524 Z M18.2893971,16.6177962 C18.1599061,17.1051715 18.0922498,17.6071351 18.0880016,18.1111379 C17.9885626,21.4918627 20.6567379,24.313055 24.0477342,24.4120359 C27.4387305,24.5111738 30.2683369,21.8510804 30.3679332,18.4703556 C30.3945237,17.5666643 30.2198761,16.6683063 29.8572069,15.8397526 C31.2795624,15.9150472 32.3746503,16.0405381 32.878139,16.1034404 L51.9853772,34.3121698 L3.4238937,25.377061 C6.53293632,20.909585 11.5426487,17.9858039 18.2893971,16.6177962 Z M24.2179763,14.5095491 C26.2201305,14.5026471 27.8487591,16.1150483 27.855682,18.1111379 C27.862605,20.1072275 26.245305,21.7310798 24.2431507,21.7379818 C22.2409965,21.7447269 20.612368,20.1323257 20.605445,18.136393 L20.605445,18.123687 C20.605445,16.1327739 22.2206996,14.5164511 24.2179763,14.5095491 Z M57.0959447,35.9810419 C57.0994061,35.926924 57.0994061,35.8721786 57.0959447,35.8179038 C57.0643193,35.7476289 57.0264003,35.6804912 56.9825024,35.6171183 L56.8692174,35.4665292 L34.4765582,14.1332333 C34.2938862,13.9553499 34.0611801,13.8370748 33.8095931,13.794251 C31.8906718,13.5272691 29.9566459,13.3848369 28.0193159,13.3675819 C27.2804462,12.794716 26.4190086,12.3995765 25.5018725,12.2130657 C25.2878898,9.90418997 25.5396341,4.68361171 29.8572069,2.37473603 C30.4687883,2.02822429 30.6830857,1.25269053 30.3355212,0.642961627 C29.9879566,0.0329189944 29.2100666,-0.180415534 28.5983279,0.165939347 C22.9970163,3.19027001 22.631987,9.48991314 22.7578591,12.2005166 C21.634922,12.4513415 20.605445,13.0124427 19.7872759,13.819506 C10.5860202,15.199749 3.78892299,19.2907524 0.10086839,25.6907882 L0.10086839,25.7536905 L0.10086839,25.8289851 C0.0379323043,25.9759663 0.00378947801,26.1334574 0.000170653095,26.2933014 L0.000170653095,48.7058191 C-0.00989912057,49.3196264 0.426719972,49.8502961 1.03232245,49.9607281 L55.6230829,60 L55.8496528,60 C56.5449392,60 57.1083745,59.4381145 57.1083745,58.745091 L57.1083745,36.2571219 L57.1083745,36.1694351 C57.1090039,36.106376 57.1045984,36.0436305 57.0959447,35.9810419 Z" id="Fill-1" fill="url(#linearGradient-3)" mask="url(#mask-2)"></path>
                    </g>
                </g>
            </g>
        </g>
    </g>
</svg>