<?xml version="1.0" encoding="UTF-8"?>
<svg width="47px" height="60px" viewBox="0 0 47 60" version="1.1" xmlns="http://www.w3.org/2000/svg" xmlns:xlink="http://www.w3.org/1999/xlink">
    <!-- Generator: Sketch 52.4 (67378) - http://www.bohemiancoding.com/sketch -->
    <title>Fill 1</title>
    <desc>Created with Sketch.</desc>
    <defs>
        <linearGradient x1="100%" y1="50%" x2="0%" y2="50%" id="linearGradient-1">
            <stop stop-color="#A78963" offset="0%"></stop>
            <stop stop-color="#784729" offset="100%"></stop>
        </linearGradient>
    </defs>
    <g id="Page-1" stroke="none" stroke-width="1" fill="none" fill-rule="evenodd">
        <g id="Homepage-Main" transform="translate(-1462.000000, -1619.000000)" fill="url(#linearGradient-1)">
            <g id="Group-44" transform="translate(1170.000000, 1170.000000)">
                <g id="Group-17" transform="translate(0.000000, 449.000000)">
                    <path d="M331.00025,20 C329.989875,20.00525 328.99525,19.750125 328.11225,19.259 L331.78425,14.621 C332.12725,14.188125 332.054375,13.559125 331.6215,13.216125 C331.44475,13.076125 331.225875,12.999875 331.00025,13 L325.08325,13 C325.6355,9.732625 328.732,7.531625 331.999375,8.083875 C335.26675,8.636125 337.46775,11.732625 336.9155,15 C336.4275,17.8865 333.92775,19.9995 331.00025,20 Z M323.39125,22 L317.94425,22 L319.97725,15 L328.93325,15 L323.39125,22 Z M312.00025,36.389 L302.19225,24 L315.28225,24 L313.04025,31.721 L314.96025,32.279 L317.36425,24 L321.80825,24 L312.00025,36.389 Z M295.06725,15 L317.89425,15 L315.86225,22 L300.60925,22 L295.06725,15 Z M331.00025,6 C326.972375,6.00675 323.57625,9.004125 323.06925,13 L320.55725,13 L323.75125,2 L327.00025,2 L327.00025,0 L323.00025,0 C322.5555,0.000125 322.164375,0.294 322.04025,0.721 L318.47525,13 L293.00025,13 C292.448,12.999875 292.000125,13.4475 292,13.99975 C292,14.22525 292.076125,14.444125 292.21625,14.621 L311.00025,38.348 L311.00025,58 L303.00025,58 L303.00025,60 L321.00025,60 L321.00025,58 L313.00025,58 L313.00025,38.348 L326.87225,20.826 C328.112,21.594375 329.54175,22.001 331.00025,22 C335.4185,22 339.00025,18.41825 339.00025,14 C339.00025,9.58175 335.4185,6 331.00025,6 Z" id="Fill-1"></path>
                </g>
            </g>
        </g>
    </g>
</svg>