<?xml version="1.0" encoding="UTF-8"?>
<svg width="189px" height="9px" viewBox="0 0 189 9" version="1.1" xmlns="http://www.w3.org/2000/svg" xmlns:xlink="http://www.w3.org/1999/xlink">
    <!-- Generator: Sketch 52.4 (67378) - http://www.bohemiancoding.com/sketch -->
    <title>Group 3</title>
    <desc>Created with Sketch.</desc>
    <defs>
        <path d="M16.698,1.05075 C12.946,2.70375 4.178,10.49075 1.272,3.19575 C0.974,2.44875 -0.21,2.72575 0.033,3.53675 C1.116,7.15775 4.883,8.25675 8.37,7.50575 C11.352,6.86375 13.63,4.75075 16.29,3.40575 C21.682,0.67875 25.789,2.79575 30.848,4.89075 C36.791,7.35075 41.061,7.19575 46.939,4.70475 C52.033,2.54775 55.75,2.27275 60.779,4.71475 C63.233,5.90575 65.618,7.27775 68.399,7.46475 C71.006,7.63775 73.332,6.73175 75.654,5.64975 C80.312,3.47875 83.738,2.14475 88.831,3.81875 C93.209,5.25775 97.516,8.00575 102.126,8.01875 L102.192,8.01875 C103.317,8.01575 104.46,7.84875 105.628,7.45875 C108.499,6.50075 110.703,4.29375 113.487,3.17375 C118.354,1.21775 122.045,4.23075 126.257,6.25375 C131.659,8.84975 136.012,7.82975 141.196,5.28875 C145.918,2.97375 149.672,1.17875 154.699,3.88875 C157.272,5.27575 159.686,7.55775 162.734,7.83375 C165.395,8.07375 166.91,6.70475 168.936,5.23175 C175.101,0.74675 181.039,3.94175 186.63,7.75675 C187.359,8.25275 188.062,7.58975 188.084,6.89675 L188.084,6.83075 C188.075,6.53875 187.941,6.24675 187.635,6.04075 C183.009,2.92975 176.692,-0.87725 170.925,1.42075 C167.225,2.89575 164.776,7.06275 160.213,4.79875 C157.802,3.60375 155.764,1.71075 153.194,0.81375 C147.992,-1.00325 143.484,1.91675 138.904,4.05375 C134.2,6.24875 130.656,6.12075 126.096,3.79875 C123.646,2.54975 121.247,0.92775 118.484,0.45075 C111.974,-0.67025 108.266,5.92375 102.098,5.98275 C98.872,6.01375 95.942,4.70175 93.004,3.38875 C90.049,2.06875 87.086,0.74975 83.807,0.79475 C81.212,0.83075 78.876,1.84275 76.572,2.93075 C71.682,5.24075 68.118,5.98575 63.059,3.61275 C57.334,0.92475 53.636,-0.21725 47.526,2.27775 C42.894,4.16975 39.301,5.70675 34.271,4.11475 C30.684,2.97975 27.428,0.84875 23.681,0.18975 C22.959,0.06275 22.249,-0.00025 21.549,-0.00025 C19.889,-0.00025 18.282,0.35375 16.698,1.05075" id="path-1"></path>
    </defs>
    <g id="Page-1" stroke="none" stroke-width="1" fill="none" fill-rule="evenodd">
        <g id="Homepage-Main" transform="translate(-866.000000, -1994.000000)">
            <g id="Group-3" transform="translate(866.000000, 1994.000000)">
                <mask id="mask-2" fill="white">
                    <use xlink:href="#path-1"></use>
                </mask>
                <g id="Clip-2"></g>
                <path d="M16.698,1.05075 C12.946,2.70375 4.178,10.49075 1.272,3.19575 C0.974,2.44875 -0.21,2.72575 0.033,3.53675 C1.116,7.15775 4.883,8.25675 8.37,7.50575 C11.352,6.86375 13.63,4.75075 16.29,3.40575 C21.682,0.67875 25.789,2.79575 30.848,4.89075 C36.791,7.35075 41.061,7.19575 46.939,4.70475 C52.033,2.54775 55.75,2.27275 60.779,4.71475 C63.233,5.90575 65.618,7.27775 68.399,7.46475 C71.006,7.63775 73.332,6.73175 75.654,5.64975 C80.312,3.47875 83.738,2.14475 88.831,3.81875 C93.209,5.25775 97.516,8.00575 102.126,8.01875 L102.192,8.01875 C103.317,8.01575 104.46,7.84875 105.628,7.45875 C108.499,6.50075 110.703,4.29375 113.487,3.17375 C118.354,1.21775 122.045,4.23075 126.257,6.25375 C131.659,8.84975 136.012,7.82975 141.196,5.28875 C145.918,2.97375 149.672,1.17875 154.699,3.88875 C157.272,5.27575 159.686,7.55775 162.734,7.83375 C165.395,8.07375 166.91,6.70475 168.936,5.23175 C175.101,0.74675 181.039,3.94175 186.63,7.75675 C187.359,8.25275 188.062,7.58975 188.084,6.89675 L188.084,6.83075 C188.075,6.53875 187.941,6.24675 187.635,6.04075 C183.009,2.92975 176.692,-0.87725 170.925,1.42075 C167.225,2.89575 164.776,7.06275 160.213,4.79875 C157.802,3.60375 155.764,1.71075 153.194,0.81375 C147.992,-1.00325 143.484,1.91675 138.904,4.05375 C134.2,6.24875 130.656,6.12075 126.096,3.79875 C123.646,2.54975 121.247,0.92775 118.484,0.45075 C111.974,-0.67025 108.266,5.92375 102.098,5.98275 C98.872,6.01375 95.942,4.70175 93.004,3.38875 C90.049,2.06875 87.086,0.74975 83.807,0.79475 C81.212,0.83075 78.876,1.84275 76.572,2.93075 C71.682,5.24075 68.118,5.98575 63.059,3.61275 C57.334,0.92475 53.636,-0.21725 47.526,2.27775 C42.894,4.16975 39.301,5.70675 34.271,4.11475 C30.684,2.97975 27.428,0.84875 23.681,0.18975 C22.959,0.06275 22.249,-0.00025 21.549,-0.00025 C19.889,-0.00025 18.282,0.35375 16.698,1.05075" id="Fill-1" fill="#784729" mask="url(#mask-2)"></path>
            </g>
        </g>
    </g>
</svg>