<svg width="250" height="250" viewBox="0 0 250 250" fill="none" xmlns="http://www.w3.org/2000/svg">
<rect width="250" height="250" fill="#292524"/>
<path d="M167.638 69.453C170.798 74.8173 172.358 80.2666 172.135 86.3148C171.908 92.4992 171.94 98.7032 172.146 104.889C172.249 108 171.183 110.229 168.982 112.314C164.492 116.566 160.178 121.005 156.057 125.102C162.108 131.155 168.076 137.023 173.879 143.05C174.687 143.889 175.021 145.518 174.999 146.77C174.862 154.515 175.07 162.315 174.193 169.986C172.911 181.201 161.961 192.138 150.797 193.288C140.581 194.341 130.172 193.512 119.592 193.512C119.592 185.881 119.592 177.659 119.592 168.982C125.181 168.982 130.827 169.027 136.471 168.971C144.772 168.89 146.89 164.989 147.629 158.1C148.134 153.391 146.04 150.369 143.175 146.801C137.189 139.344 130.157 136.496 120.748 137.629C114.795 138.347 108.685 137.763 102.452 137.763C102.452 148.231 102.452 158.433 102.452 168.86C106.234 168.86 109.911 168.86 113.863 168.86C113.863 177.296 113.863 185.52 113.863 194C101.074 194 88.1535 194 75 194C75 148.184 75 102.308 75 56.2163C90.884 56.2163 106.775 56.2163 122.861 56.2163C122.861 64.4898 122.861 72.7107 122.861 81.1551C116.097 81.1551 109.452 81.1551 102.531 81.1551C102.531 91.8228 102.531 102.275 102.531 113.234C105.187 113.234 107.979 113.234 110.77 113.234C113.989 113.234 117.288 112.772 120.41 113.32C130.347 115.061 137.85 111.461 143.513 103.489C144.423 102.209 145.213 100.521 145.244 99.0051C145.31 95.8481 145.037 92.6458 144.527 89.5236C143.666 84.2545 140.077 81.5014 134.2 81.283C132.364 81.2147 130.524 81.2724 128.472 81.2724C128.472 72.8389 128.472 64.6152 128.472 56.0588C143.105 55.8891 157.744 55.2126 167.638 69.453Z" fill="#FAB717"/>
</svg>
