<?xml version="1.0" standalone="no"?>
<!DOCTYPE svg PUBLIC "-//W3C//DTD SVG 20010904//EN"
 "http://www.w3.org/TR/2001/REC-SVG-20010904/DTD/svg10.dtd">
<svg version="1.0" xmlns="http://www.w3.org/2000/svg"
 width="64.000000pt" height="64.000000pt" viewBox="0 0 64.000000 64.000000"
 preserveAspectRatio="xMidYMid meet">

<g transform="translate(0.000000,64.000000) scale(0.100000,-0.100000)"
fill="#82674E" stroke="none">
<path d="M241 625 c-70 -20 -111 -46 -160 -101 -72 -82 -94 -203 -56 -314 25
-76 109 -160 185 -185 123 -42 241 -15 331 74 89 90 116 208 74 331 -25 74
-110 160 -180 183 -75 25 -134 28 -194 12z m204 -29 c64 -30 121 -87 151 -151
33 -70 33 -180 0 -250 -30 -64 -87 -121 -151 -151 -70 -33 -180 -33 -250 0
-64 30 -121 87 -151 151 -33 70 -33 180 0 250 30 64 87 121 151 151 70 33 180
33 250 0z"/>
<path d="M202 554 c-93 -46 -142 -127 -142 -234 0 -152 108 -260 260 -260 152
0 259 108 260 261 0 151 -108 258 -261 259 -50 0 -77 -6 -117 -26z m218 -5
c60 -27 98 -64 126 -124 78 -164 -43 -355 -226 -355 -64 0 -141 32 -182 76
-89 96 -89 252 0 348 67 72 192 96 282 55z"/>
<path d="M193 516 c-24 -11 -33 -23 -39 -50 -3 -20 -19 -52 -35 -72 -48 -61
-39 -115 25 -145 23 -11 56 -29 73 -40 18 -11 38 -19 44 -17 5 2 -24 21 -66
43 -105 54 -117 81 -66 152 16 22 32 54 35 71 9 40 28 54 74 55 43 0 149 -59
169 -96 9 -17 12 -18 13 -5 0 28 -114 107 -164 114 -17 2 -45 -2 -63 -10z"/>
<path d="M437 405 c-10 -24 -41 -74 -69 -110 -27 -37 -59 -87 -70 -112 -23
-52 -21 -54 44 -89 26 -14 27 -13 51 39 14 28 46 79 71 112 25 33 52 74 60 90
26 56 24 67 -19 92 -22 12 -42 23 -45 23 -3 0 -13 -20 -23 -45z m33 -1 c-16
-42 -31 -66 -76 -125 -23 -31 -53 -77 -65 -102 -12 -25 -26 -44 -30 -41 -14 8
11 57 72 141 33 45 66 98 75 118 17 41 39 49 24 9z m25 -30 c-8 -19 -41 -72
-75 -118 -33 -45 -65 -97 -71 -115 -7 -20 -15 -29 -21 -23 -14 14 8 60 73 149
33 45 67 99 75 118 8 20 19 33 24 30 6 -4 4 -20 -5 -41z m11 -47 c-13 -23 -45
-69 -70 -102 -25 -33 -51 -75 -57 -92 -6 -18 -15 -33 -20 -33 -5 0 -9 2 -9 5
0 20 38 88 88 158 32 45 64 96 72 112 10 24 14 26 17 12 3 -10 -7 -37 -21 -60z"/>
<path d="M245 405 c-30 -29 -32 -68 -5 -95 41 -41 120 -12 120 45 0 31 -41 75
-70 75 -11 0 -32 -11 -45 -25z m79 -6 c30 -23 33 -45 10 -77 -30 -44 -104 -16
-104 39 0 16 44 59 60 59 4 0 19 -9 34 -21z"/>
</g>
</svg>
