<svg xmlns="http://www.w3.org/2000/svg" xmlns:xlink="http://www.w3.org/1999/xlink" version="1.1" width="512" height="512" x="0" y="0" viewBox="0 0 24 24" style="enable-background:new 0 0 512 512" xml:space="preserve" class=""><g><path d="M21.5 9C22.878 9 24 7.878 24 6.5S22.878 4 21.5 4 19 5.122 19 6.5 20.122 9 21.5 9Zm0-4c.827 0 1.5.673 1.5 1.5S22.327 8 21.5 8 20 7.327 20 6.5 20.673 5 21.5 5Zm0 5a2.503 2.503 0 0 0-2.5 2.5V18h-3v6h1v-5h4.5c1.378 0 2.5-1.122 2.5-2.5v-4c0-1.378-1.122-2.5-2.5-2.5Zm1.5 6.5c0 .827-.673 1.5-1.5 1.5H20v-5.5c0-.827.673-1.5 1.5-1.5s1.5.673 1.5 1.5v4ZM17 14H7v-1h10v1Zm-5.68-4.758c.195.173.44.259.684.259a.997.997 0 0 0 .663-.248L14.18 8H17V1.5c0-.827-.673-1.5-1.5-1.5h-7C7.673 0 7 .673 7 1.5V8h2.82l1.5 1.242ZM8 1.5a.5.5 0 0 1 .5-.5h7a.5.5 0 0 1 .5.5V7h-2.18l-1.849 1.482L10.18 7H8V1.5ZM19 21h5v1h-4v2h-1v-3ZM2.5 9C3.878 9 5 7.878 5 6.5S3.878 4 2.5 4 0 5.122 0 6.5 1.122 9 2.5 9Zm0-4C3.327 5 4 5.673 4 6.5S3.327 8 2.5 8 1 7.327 1 6.5 1.673 5 2.5 5ZM5 12.5C5 11.122 3.878 10 2.5 10S0 11.122 0 12.5v4C0 17.878 1.122 19 2.5 19H7v5h1v-6H5v-5.5ZM2.5 18c-.827 0-1.5-.673-1.5-1.5v-4c0-.827.673-1.5 1.5-1.5s1.5.673 1.5 1.5V18H2.5ZM0 21h5v3H4v-2H0v-1Z" fill="#2F352F" opacity="1" data-original="#2F352F"/></g></svg>
