<svg xmlns="http://www.w3.org/2000/svg" xmlns:xlink="http://www.w3.org/1999/xlink" version="1.1" width="512" height="512" x="0" y="0" viewBox="0 0 24 24" style="enable-background:new 0 0 512 512" xml:space="preserve" class=""><g><path d="M8.85 4.85c.14-.14.19-.36.11-.54S8.7 4 8.5 4h-3C4.67 4 4 4.67 4 5.5v11c0 .83.67 1.5 1.5 1.5h4c.28 0 .5-.22.5-.5s-.22-.5-.5-.5h-4c-.28 0-.5-.22-.5-.5V8.71l3.85-3.85ZM5 5.5c0-.28.22-.5.5-.5h1.79L5 7.29V5.5Zm12 4v-4c0-.28-.22-.5-.5-.5h-2.17c-.39 0-.78.16-1.06.44L9.44 9.27c-.28.28-.44.66-.44 1.06v2.17c0 .28.22.5.5.5h1c.28 0 .5.22.5.5s-.22.5-.5.5h-1c-.83 0-1.5-.67-1.5-1.5v-2.17c0-.67.26-1.3.73-1.77l3.83-3.83c.47-.47 1.1-.73 1.77-.73h2.17c.83 0 1.5.67 1.5 1.5v4c0 .28-.22.5-.5.5s-.5-.22-.5-.5ZM13.5 9c.28 0 .5.22.5.5v1c0 .28-.22.5-.5.5s-.5-.22-.5-.5v-1c0-.28.22-.5.5-.5ZM12 21.5c0 .28-.22.5-.5.5h-7C2.02 22 0 19.98 0 17.5v-13C0 2.02 2.02 0 4.5 0h13C19.98 0 22 2.02 22 4.5v7c0 .28-.22.5-.5.5s-.5-.22-.5-.5v-7C21 2.57 19.43 1 17.5 1h-13C2.57 1 1 2.57 1 4.5v13C1 19.43 2.57 21 4.5 21h7c.28 0 .5.22.5.5Zm11.85 1.65-2.98-2.98A4.94 4.94 0 0 0 22 17.01c0-2.76-2.24-5-5-5s-5 2.24-5 5 2.24 5 5 5c1.2 0 2.3-.42 3.16-1.13l2.98 2.98a.485.485 0 0 0 .7 0c.2-.2.2-.51 0-.71ZM17 21c-2.21 0-4-1.79-4-4s1.79-4 4-4 4 1.79 4 4-1.79 4-4 4Z" fill="#2F352F" opacity="1" data-original="#2F352F" class=""/></g></svg>
