<svg xmlns="http://www.w3.org/2000/svg" xmlns:xlink="http://www.w3.org/1999/xlink" version="1.1" width="512" height="512" x="0" y="0" viewBox="0 0 24 24" style="enable-background:new 0 0 512 512" xml:space="preserve" class=""><g><path d="M24 6.5v2a.5.5 0 0 1-1 0v-2C23 4.57 21.43 3 19.5 3h-15C2.57 3 1 4.57 1 6.5v11C1 19.43 2.57 21 4.5 21h4a.5.5 0 0 1 0 1h-4A4.505 4.505 0 0 1 0 17.5v-11C0 4.019 2.019 2 4.5 2h15C21.981 2 24 4.019 24 6.5ZM13.5 8h7a.5.5 0 0 0 0-1h-7a.5.5 0 0 0 0 1Zm0 4h3a.5.5 0 0 0 0-1h-3a.5.5 0 0 0 0 1Zm9.768-.268c.473.472.732 1.1.732 1.768s-.26 1.296-.732 1.768l-7.707 7.707A3.474 3.474 0 0 1 13.086 24H11.5a.5.5 0 0 1-.5-.5v-1.586c0-.921.374-1.823 1.025-2.475l7.707-7.707a2.502 2.502 0 0 1 3.535 0ZM23 13.5a1.501 1.501 0 0 0-2.56-1.061l-7.707 7.707a2.514 2.514 0 0 0-.732 1.768V23h1.086c.668 0 1.296-.26 1.768-.732l7.707-7.707a1.49 1.49 0 0 0 .439-1.061ZM7.837 11.742l-2.49-.467a1.653 1.653 0 0 1 .304-3.276h1.774c.623 0 1.204.335 1.517.875a.5.5 0 0 0 .866-.5 2.758 2.758 0 0 0-2.382-1.375H7v-1.5a.5.5 0 0 0-1 0v1.5h-.349a2.652 2.652 0 0 0-.488 5.258l2.49.467A1.653 1.653 0 0 1 7.349 16H5.575a1.759 1.759 0 0 1-1.517-.875.5.5 0 1 0-.866.5A2.758 2.758 0 0 0 5.574 17H6v1.5a.5.5 0 0 0 1 0V17h.349a2.652 2.652 0 0 0 .488-5.258Z" fill="#2F352F" opacity="1" data-original="#2F352F" class=""/></g></svg>
