<svg xmlns="http://www.w3.org/2000/svg" xmlns:xlink="http://www.w3.org/1999/xlink" version="1.1" width="512" height="512" x="0" y="0" viewBox="0 0 24 24" style="enable-background:new 0 0 512 512" xml:space="preserve" class=""><g><path d="M18.947 6.407C18.527 2.805 15.463 0 11.75 0 8.165 0 5.188 2.617 4.609 6.039 2.037 6.242 0 8.376 0 11c0 1.795.959 3.418 2.522 4.307v1.241l1.044 1.019-1.245 1.245 1.25 1.25-1.25 1.25L5 23.99l2.5-2.501v-6.178A4.962 4.962 0 0 0 10 11a5.003 5.003 0 0 0-3-4.576v1.132C8.19 8.25 9 9.526 9 11a3.972 3.972 0 0 1-2.224 3.564l-.276.139v6.371L5 22.575l-1.265-1.264 1.25-1.25-1.25-1.25 1.255-1.255-1.468-1.431v-1.432l-.279-.138C1.859 13.876 1 12.513 1 10.998c0-2.038 1.537-3.706 3.51-3.95-.002.067-.01.133-.01.2v.903a.985.985 0 0 0-.5.847 1 1 0 0 0 2 0 .985.985 0 0 0-.5-.847v-.903a6.257 6.257 0 0 1 6.25-6.25c3.195 0 5.833 2.411 6.202 5.508L13 11.458v12.54h11v-12.54l-5.053-5.053ZM23 23h-9V11.874l4.5-4.5 4.5 4.5V23Z" fill="#2F352F" opacity="1" data-original="#2F352F" class=""/></g></svg>
